# xmcd
# 
# Track frame offsets:
#     150
#     19791
#     42933
#     61411
#     86539
#     112339
#     132928
#     155450
#     182332
#     204926
#     223647
#     243867
#     271950
#     292041
# 
# Disc length: 4219
# 
# Revision: 5
# Processed by: cddbd v1.5.2PL0 Copyright (c) Steve Scherf et al.
# Submitted via: fre:ac v1.0.17
# 
DISCID=c610790e
DTITLE=Naidoo Xavier - Telegramm für X
DYEAR=2005
DGENRE=Soul
TTITLE0=Und
TTITLE1=Bitte frag mich nicht
TTITLE2=Dieser Weg
TTITLE3=Zeilen aus Gold
TTITLE4=Oh My Lady
TTITLE5=Seelenheil
TTITLE6=Wo komme ich her
TTITLE7=Bist Du am Leben
TTITLE8=Abgrund
TTITLE9=Bist Du aufgewacht
TTITLE10=Nicht dafuer
TTITLE11=In Deine Haende
TTITLE12=Du bist wie ein Segen
TTITLE13=Was wir alleine nicht schaffen
EXTD=YEAR: 2005
EXTT0=
EXTT1=
EXTT2=
EXTT3=
EXTT4=
EXTT5=
EXTT6=
EXTT7=
EXTT8=
EXTT9=
EXTT10=
EXTT11=
EXTT12=
EXTT13=
PLAYORDER=
